<svg width="144" height="48" viewBox="0 0 144 48" fill="none" xmlns="http://www.w3.org/2000/svg">
<path fill-rule="evenodd" clip-rule="evenodd" d="M17.3333 15.8852C18.0911 16.6894 18.3438 17.4709 18.3438 18.2984C18.3438 21.079 15.9999 23.0558 15.9999 26.2497C15.9999 29.1922 18.0573 32.1874 24.0069 32.1874C29.3102 32.1874 32.1074 29.5913 32.1074 26.825C32.1074 24.4581 30.4061 22.4516 27.1233 22.1361L27.0778 22.2513C27.833 22.583 29.5229 23.8979 29.5229 26.543C29.5229 29.0333 27.4215 31.5466 24.1214 31.5466C20.013 31.5466 18.5967 29.1463 18.5967 26.9398C18.5967 24.1133 20.5736 22.2287 20.5736 19.654C20.5736 17.8613 19.2175 16.0919 17.4018 15.77L17.3333 15.8852Z" fill="#E74A21"/>
<path fill-rule="evenodd" clip-rule="evenodd" d="M24.0761 28.2265L25.57 14.0002H22.4445L23.9384 28.2265H24.0761ZM104.409 21.4328V30.8169L102.914 31.1614V31.5469H107.609V31.1614L106.114 30.8169V21.4328H108.646L109.479 23.2146H109.801L109.56 20.8699H100.963L100.722 23.2146H101.044L101.874 21.4328H104.409ZM95.1571 26.3268C95.5249 26.2323 97.6451 25.6932 97.6451 23.6746C97.6451 22.0667 96.4134 20.8209 93.3805 20.8209C91.5065 20.8209 89.6099 20.8639 89.3795 20.8695V21.2543L90.6177 21.6014V30.8158L89.3795 31.161V31.5465H93.7615V31.1613L92.3227 30.8161V26.6505H93.5609L96.7285 31.5465H99.5316V31.1768L98.1124 30.8161L95.1571 26.3268ZM79.7176 27.0768H83.2689L81.5055 22.3172H81.4897L79.7176 27.0768ZM76.412 31.1611L77.6216 30.817L81.352 20.8681L82.5996 20.5481L86.452 30.8163L87.6609 31.1611V31.547H83.0883V31.1611L84.6344 30.8163L83.5427 27.8648H79.4403L78.3546 30.817L79.9026 31.1611V31.547H76.412V31.1611ZM119.933 28.6076H120.229L121.227 30.9041C121.526 31.0532 122.272 31.3784 123.137 31.3784C124.43 31.3784 125.614 30.6071 125.614 29.277C125.614 28.2534 124.953 27.6416 123.877 27.083C123.534 26.9041 123.176 26.7182 122.817 26.5314C121.546 25.8707 120.279 24.9382 120.279 23.4361C120.279 21.8038 121.427 20.5403 123.828 20.5403C125.063 20.5403 126.119 20.8829 126.327 20.9522L126.579 23.4226H126.257L125.334 21.442C125.162 21.3543 124.607 21.0384 123.788 21.0384C122.566 21.0384 121.731 21.7925 121.731 22.8349C121.731 23.7813 122.36 24.3754 123.435 24.9322C123.834 25.1381 124.276 25.3697 124.694 25.5861C126.411 26.475 127.225 27.2975 127.225 28.8241C127.225 30.7079 125.46 31.8769 123.266 31.8769C121.587 31.8769 120.56 31.5298 120.219 31.4229L119.933 28.6076ZM112.363 31.1614L113.858 30.8169V21.6007L112.363 21.2558V20.8699H117.059V21.2554L115.563 21.6007V30.8169L117.059 31.1614V31.5469H112.363V31.1614ZM93.0085 26.0953H92.3229V21.432C94.5994 21.432 95.925 21.9497 95.925 23.7958C95.925 25.1669 94.7402 26.0953 93.0085 26.0953ZM67.4494 21.601L66.3261 21.2554V20.8699H70.6517V21.2554L69.2975 21.6007L72.2844 29.7403H72.3006L75.2875 21.601L73.9329 21.2558V20.8699H77.1337V21.2558L76.0201 21.601L72.2339 31.74H71.2758L67.4494 21.601ZM63.3363 26.4903C63.3363 23.7244 61.6802 21.0387 59.4289 21.0387C57.0331 21.0387 55.956 23.3547 55.956 25.8311C55.956 28.2909 57.3226 31.3783 59.8954 31.3783C62.307 31.3783 63.3363 28.9343 63.3363 26.4903ZM65.1696 25.9276C65.1696 29.7065 62.5483 31.8769 59.654 31.8769C56.7274 31.8769 54.1384 29.658 54.1384 26.2167C54.1384 22.7434 56.7597 20.5403 59.6378 20.5403C63.1759 20.5403 65.1696 23.2904 65.1696 25.9276ZM50.4265 31.7159L43.3753 22.6228V30.8169L44.8141 31.1614V31.5469H41.534V31.1614L42.7078 30.8169V21.8905C42.5918 21.7817 42.1506 21.4162 41.694 21.3176C41.552 21.2867 41.357 21.2551 41.357 21.2551V20.8699H44.1387L50.1773 28.7008V21.6014L48.7395 21.2558V20.8699H52.0182V21.2558L50.8444 21.6014V29.7297C50.8444 30.4721 50.8971 31.577 50.9076 31.7159H50.4265Z" fill="#0460A9"/>
<path fill-rule="evenodd" clip-rule="evenodd" d="M23.9694 32.0743C29.2727 32.0743 32.0699 29.4782 32.0699 26.7119C32.0699 24.3451 30.3686 22.3385 27.0858 22.023L27.0403 22.1382C27.7955 22.4699 29.4854 23.7849 29.4854 26.4299C29.4854 28.9203 27.384 31.4336 24.0839 31.4336C23.838 31.4336 23.8953 32.0743 23.9694 32.0743Z" fill="#EC9A1E"/>
</svg>
