<svg width="24" height="24" viewBox="0 0 24 24" fill="none" xmlns="http://www.w3.org/2000/svg">
<path fill-rule="evenodd" clip-rule="evenodd" d="M17.4 6C16.9367 3.71776 14.919 2 12.5 2C10.081 2 8.06329 3.71776 7.60002 6H4V8H9.5V7C9.5 5.34315 10.8431 4 12.5 4C13.8062 4 14.9175 4.83481 15.3293 6H12V8H21V6H17.4ZM11 11H9V18H11V11ZM17.0701 9.99668H18.9849V19.2466C18.9849 20.7752 17.6522 21.9967 16.0018 21.9967H7.99925C6.34602 21.9967 5.07005 21.6845 5.07005 20.1531V9.99668H6.98735V19.2277C6.98735 19.7376 7.44882 20.1531 7.99925 20.1531H16.0701C16.6176 20.1531 17.0701 19.7538 17.0701 19.2466V9.99668ZM15 11H13V18H15V11Z" fill="black" fill-opacity="0.87"/>
</svg>
